<svg xmlns="http://www.w3.org/2000/svg" viewBox="0 0 120 120" fill="none">
  <!-- Mined cave/crater -->
  <ellipse cx="60" cy="90" rx="45" ry="12" fill="#1a1a2e" opacity="0.6"/>
  <!-- Crater hole -->
  <path d="M25 80 Q35 95 60 98 Q85 95 95 80 Q90 70 75 68 Q60 72 45 68 Q30 70 25 80Z" fill="#0d0d1a" stroke="#3d2b5a" stroke-width="1.5"/>
  <!-- Pickaxe -->
  <line x1="70" y1="30" x2="90" y2="60" stroke="#a0a0a0" stroke-width="3" stroke-linecap="round"/>
  <path d="M65 25 L75 35 L68 38 L62 30Z" fill="#6b7280"/>
  <!-- Sparkle remnants (diamonds already taken) -->
  <circle cx="40" cy="72" r="2" fill="#c4b5fd" opacity="0.4"/>
  <circle cx="55" cy="78" r="1.5" fill="#c4b5fd" opacity="0.3"/>
  <circle cx="72" cy="75" r="1.8" fill="#c4b5fd" opacity="0.35"/>
  <!-- Checkmark badge -->
  <circle cx="60" cy="45" r="16" fill="#14532d" stroke="#22c55e" stroke-width="2"/>
  <path d="M52 45 L57 50 L68 39" stroke="#22c55e" stroke-width="3" stroke-linecap="round" stroke-linejoin="round" fill="none"/>
  <!-- Small diamond dust -->
  <path d="M30 55 L32 52 L34 55 L32 57Z" fill="#a78bfa" opacity="0.5"/>
  <path d="M85 50 L87 47 L89 50 L87 52Z" fill="#a78bfa" opacity="0.4"/>
  <path d="M48 35 L49 33 L50 35 L49 36Z" fill="#a78bfa" opacity="0.3"/>
</svg>
