<svg xmlns="http://www.w3.org/2000/svg" viewBox="0 0 180 180" fill="none" shape-rendering="auto" width="128" height="128"><metadata xmlns:rdf="http://www.w3.org/1999/02/22-rdf-syntax-ns#" xmlns:xsi="http://www.w3.org/2001/XMLSchema-instance" xmlns:dc="http://purl.org/dc/elements/1.1/" xmlns:dcterms="http://purl.org/dc/terms/"><rdf:RDF><rdf:Description><dc:title>Bottts</dc:title><dc:creator>Pablo Stanley</dc:creator><dc:source xsi:type="dcterms:URI">https://bottts.com/</dc:source><dcterms:license xsi:type="dcterms:URI">https://bottts.com/</dcterms:license><dc:rights>Remix of „Bottts” (https://bottts.com/) by „Pablo Stanley”, licensed under „Free for personal and commercial use” (https://bottts.com/)</dc:rights></rdf:Description></rdf:RDF></metadata><mask id="viewboxMask"><rect width="180" height="180" rx="0" ry="0" x="0" y="0" fill="#fff" /></mask><g mask="url(#viewboxMask)"><g transform="translate(0 66)"><mask id="sidesRound-a" style="mask-type:luminance" maskUnits="userSpaceOnUse" x="12" y="16" width="156" height="45"><g fill="#fff"><ellipse cx="150" cy="38.5" rx="18" ry="22.5"/><ellipse cx="18" cy="22.5" rx="18" ry="22.5" transform="matrix(-1 0 0 1 48 16)"/></g></mask><g mask="url(#sidesRound-a)"><path d="M0 0h180v76H0V0Z" fill="#039be5"/><path d="M0 0h180v76H0V0Z" fill="#fff" fill-opacity=".3"/><path fill="#000" fill-opacity=".2" d="M20 0h140v76H20z"/></g></g><g transform="translate(41)"><g filter="url(#topGlowingBulb02-a)"><path fill-rule="evenodd" clip-rule="evenodd" d="M30 33a20 20 0 1 1 40 0v11H30V33Z" fill="#fff" fill-opacity=".3"/></g><ellipse cx="50" cy="30" rx="4" ry="6" fill="#fff" fill-opacity=".6"/><path d="M50 15.5c4.93 0 9.37 2.13 12.44 5.52m2.43 3.5c.7 1.3 1.21 2.73 1.53 4.23" stroke="#fff" stroke-width="2" stroke-linecap="round"/><rect x="20" y="36" width="60" height="16" rx="1" fill="#48494B"/><defs><filter id="topGlowingBulb02-a" x="22" y="5" width="56" height="47" filterUnits="userSpaceOnUse" color-interpolation-filters="sRGB"><feFlood flood-opacity="0" result="BackgroundImageFix"/><feColorMatrix in="SourceAlpha" values="0 0 0 0 0 0 0 0 0 0 0 0 0 0 0 0 0 0 127 0" result="hardAlpha"/><feOffset/><feGaussianBlur stdDeviation="4"/><feColorMatrix values="0 0 0 0 1 0 0 0 0 1 0 0 0 0 1 0 0 0 0.5 0"/><feBlend in2="BackgroundImageFix" result="effect1_dropShadow_617_633"/><feBlend in="SourceGraphic" in2="effect1_dropShadow_617_633" result="shape"/><feColorMatrix in="SourceAlpha" values="0 0 0 0 0 0 0 0 0 0 0 0 0 0 0 0 0 0 127 0" result="hardAlpha"/><feOffset/><feGaussianBlur stdDeviation="2"/><feComposite in2="hardAlpha" operator="arithmetic" k2="-1" k3="1"/><feColorMatrix values="0 0 0 0 1 0 0 0 0 1 0 0 0 0 1 0 0 0 0.5 0"/><feBlend in2="shape" result="effect2_innerShadow_617_633"/></filter></defs></g><g transform="translate(25 44)"><mask id="faceSquare02-a" style="mask-type:luminance" maskUnits="userSpaceOnUse" x="0" y="0" width="130" height="120"><path d="M0 12A12 12 0 0 1 12 0h106a12 12 0 0 1 12 12v70a38 38 0 0 1-38 38H38A38 38 0 0 1 0 82V12Z" fill="#fff"/></mask><g mask="url(#faceSquare02-a)"><path d="M-2-2h134v124H-2V-2Z" fill="#039be5"/><g transform="translate(-1 -1)"></g></g></g><g transform="translate(52 124)"><g fill="#000" fill-opacity=".6"><rect x="28" y="10" width="6" height="14" rx="2"/><rect x="14" y="10" width="6" height="14" rx="2"/><rect x="42" y="10" width="6" height="14" rx="2"/><rect x="56" y="10" width="6" height="14" rx="2"/></g></g><g transform="translate(38 76)"><g fill="#fff"><circle cx="24" cy="30" r="6"/><circle cx="80" cy="30" r="6"/></g></g></g></svg>