<svg xmlns="http://www.w3.org/2000/svg" viewBox="0 0 128 128">
  <defs>
    <linearGradient id="bg" x1="0%" y1="0%" x2="100%" y2="100%">
      <stop offset="0%" style="stop-color:#a78bfa"/>
      <stop offset="100%" style="stop-color:#c4b5fd"/>
    </linearGradient>
    <filter id="emboss">
      <feDropShadow dx="0" dy="1.5" stdDeviation="1" flood-color="#000" flood-opacity="0.35"/>
      <feDropShadow dx="0" dy="-0.5" stdDeviation="0.5" flood-color="#fff" flood-opacity="0.2"/>
    </filter>
  </defs>
  <!-- Background -->
  <rect width="128" height="128" rx="28" fill="url(#bg)"/>
  
  <!-- Thin dark curved arrows connecting the three icons -->
  <path d="M 40 48 Q 64 22 90 44" fill="none" stroke="#4c1d95" stroke-width="1.5" stroke-linecap="round" opacity="0.7"/>
  <polygon points="88,40 94,44 87,47" fill="#4c1d95" opacity="0.7"/>
  
  <path d="M 94 54 Q 102 78 72 100" fill="none" stroke="#4c1d95" stroke-width="1.5" stroke-linecap="round" opacity="0.7"/>
  <polygon points="75,98 70,103 72,95" fill="#4c1d95" opacity="0.7"/>
  
  <path d="M 56 100 Q 28 88 32 56" fill="none" stroke="#4c1d95" stroke-width="1.5" stroke-linecap="round" opacity="0.7"/>
  <polygon points="33,59 29,53 36,55" fill="#4c1d95" opacity="0.7"/>
  
  <!-- Large Cog (top-left) — fully visible -->
  <g transform="translate(12, 20)" filter="url(#emboss)">
    <path d="M26 14.5 l2-1.2 0.8-2.8h3l0.8 2.8 2 1.2 2.8-0.4 1.8 1.8-1.2 2.6 0.8 2.2 2.8 0.8v3l-2.8 0.8-0.8 2.2 1.2 2.6-1.8 1.8-2.8-0.4-2 1.2-0.8 2.8h-3l-0.8-2.8-2-1.2-2.8 0.4-1.8-1.8 1.2-2.6-0.8-2.2-2.8-0.8v-3l2.8-0.8 0.8-2.2-1.2-2.6 1.8-1.8 2.8 0.4z" fill="white"/>
    <circle cx="27.3" cy="22.5" r="6" fill="url(#bg)"/>
  </g>
  
  <!-- Mouse Pointer (top-right) -->
  <g transform="translate(78, 22)" filter="url(#emboss)">
    <path d="M4 0v32l9-9 6 14 5-2.5-6-13 10-2z" fill="white"/>
  </g>
  
  <!-- Watch/Clock (bottom-center) -->
  <g transform="translate(42, 68)" filter="url(#emboss)">
    <!-- Watch band top -->
    <rect x="12" y="0" width="10" height="5" rx="2" fill="white" opacity="0.85"/>
    <!-- Watch face -->
    <circle cx="17" cy="20" r="15" fill="white" opacity="0.95"/>
    <!-- Inner face -->
    <circle cx="17" cy="20" r="12" fill="url(#bg)" opacity="0.3"/>
    <circle cx="17" cy="20" r="12" fill="none" stroke="white" stroke-width="2"/>
    <!-- Hour markers -->
    <line x1="17" y1="10" x2="17" y2="12.5" stroke="#4c1d95" stroke-width="1.5" stroke-linecap="round"/>
    <line x1="17" y1="27.5" x2="17" y2="30" stroke="#4c1d95" stroke-width="1.5" stroke-linecap="round"/>
    <line x1="7" y1="20" x2="9.5" y2="20" stroke="#4c1d95" stroke-width="1.5" stroke-linecap="round"/>
    <line x1="24.5" y1="20" x2="27" y2="20" stroke="#4c1d95" stroke-width="1.5" stroke-linecap="round"/>
    <!-- Hour hand -->
    <line x1="17" y1="20" x2="17" y2="13" stroke="#4c1d95" stroke-width="2.5" stroke-linecap="round"/>
    <!-- Minute hand -->
    <line x1="17" y1="20" x2="23" y2="17" stroke="#4c1d95" stroke-width="2" stroke-linecap="round"/>
    <!-- Center dot -->
    <circle cx="17" cy="20" r="2" fill="#4c1d95"/>
    <!-- Watch band bottom -->
    <rect x="12" y="36" width="10" height="5" rx="2" fill="white" opacity="0.85"/>
  </g>
</svg>
