<svg xmlns="http://www.w3.org/2000/svg" viewBox="0 0 1200 630" width="1200" height="630">
  <defs>
    <linearGradient id="bg" x1="0%" y1="0%" x2="100%" y2="100%">
      <stop offset="0%" stop-color="#0a0a0f"/>
      <stop offset="50%" stop-color="#1a1a2e"/>
      <stop offset="100%" stop-color="#0a0a0f"/>
    </linearGradient>
    <linearGradient id="purp" x1="0%" y1="0%" x2="0%" y2="100%">
      <stop offset="0%" stop-color="#a78bfa"/>
      <stop offset="100%" stop-color="#7c3aed"/>
    </linearGradient>
  </defs>
  <rect width="1200" height="630" fill="url(#bg)"/>
  <!-- Shield logo -->
  <path d="M200,200 L260,220 L260,300 C260,340 200,370 200,370 C200,370 140,340 140,300 L140,220 Z" fill="none" stroke="url(#purp)" stroke-width="3"/>
  <polyline points="160,270 175,270 185,250 200,285 215,245 225,270 240,270" fill="none" stroke="#22c55e" stroke-width="3" stroke-linecap="round"/>
  <!-- Text -->
  <text x="310" y="270" font-family="Arial,sans-serif" font-size="72" font-weight="800" fill="#fafafa">xCrypto24</text>
  <text x="310" y="330" font-family="Arial,sans-serif" font-size="28" fill="#a1a1aa">Free Real-Time Memecoin Tracker</text>
  <!-- Feature pills -->
  <rect x="310" y="370" width="140" height="36" rx="18" fill="rgba(139,92,246,0.2)" stroke="#8b5cf6" stroke-width="1"/>
  <text x="345" y="394" font-family="Arial,sans-serif" font-size="14" fill="#c084fc">Live Prices</text>
  <rect x="470" y="370" width="150" height="36" rx="18" fill="rgba(139,92,246,0.2)" stroke="#8b5cf6" stroke-width="1"/>
  <text x="497" y="394" font-family="Arial,sans-serif" font-size="14" fill="#c084fc">Safety Scores</text>
  <rect x="640" y="370" width="150" height="36" rx="18" fill="rgba(139,92,246,0.2)" stroke="#8b5cf6" stroke-width="1"/>
  <text x="667" y="394" font-family="Arial,sans-serif" font-size="14" fill="#c084fc">Coin Scanner</text>
  <!-- URL -->
  <text x="310" y="460" font-family="Arial,sans-serif" font-size="20" fill="#71717a">xcrypto24.com</text>
  <!-- Purple accent line -->
  <rect x="0" y="620" width="1200" height="10" fill="url(#purp)"/>
</svg>
