<svg xmlns="http://www.w3.org/2000/svg" viewBox="0 0 1200 300" fill="none">
  <defs>
    <linearGradient id="bg7" x1="0.5" y1="0" x2="0.5" y2="1">
      <stop offset="0%" stop-color="#1e1b4b"/>
      <stop offset="100%" stop-color="#5b21b6"/>
    </linearGradient>
    <radialGradient id="lens7" cx="0.4" cy="0.35" r="0.6">
      <stop offset="0%" stop-color="#ecfdf5" stop-opacity="0.5"/>
      <stop offset="50%" stop-color="#d1fae5" stop-opacity="0.25"/>
      <stop offset="100%" stop-color="#6ee7b7" stop-opacity="0.08"/>
    </radialGradient>
  </defs>
  <rect width="1200" height="300" fill="url(#bg7)"/>
  <!-- Antique magnifying glass — far left -->
  <g transform="translate(30, 40)">
    <circle cx="70" cy="70" r="55" fill="url(#lens7)"/>
    <circle cx="70" cy="70" r="55" fill="none" stroke="#9ca3af" stroke-width="5.5"/>
    <ellipse cx="50" cy="48" rx="15" ry="8" fill="white" opacity="0.36" transform="rotate(-28, 50, 48)"/>
    <rect x="44" y="50" width="24" height="24" rx="3" fill="#f8fafc" opacity="0.85"/>
    <text x="56" y="68" font-family="Georgia, serif" font-size="12" font-weight="bold" fill="#1e1b4b" text-anchor="middle">J</text>
    <rect x="72" y="50" width="24" height="24" rx="3" fill="#f8fafc" opacity="0.85"/>
    <text x="84" y="68" font-family="Georgia, serif" font-size="12" font-weight="bold" fill="#1e1b4b" text-anchor="middle">I</text>
    <rect x="44" y="78" width="24" height="24" rx="3" fill="#f8fafc" opacity="0.85"/>
    <text x="56" y="96" font-family="Georgia, serif" font-size="12" font-weight="bold" fill="#1e1b4b" text-anchor="middle">N</text>
    <rect x="72" y="78" width="24" height="24" rx="3" fill="#f8fafc" opacity="0.85"/>
    <text x="84" y="96" font-family="Georgia, serif" font-size="12" font-weight="bold" fill="#1e1b4b" text-anchor="middle">X</text>
    <line x1="110" y1="110" x2="116" y2="116" stroke="#fbbf24" stroke-width="9" stroke-linecap="round"/>
    <line x1="116" y1="116" x2="155" y2="155" stroke="#1c1917" stroke-width="12" stroke-linecap="round"/>
    <line x1="116" y1="116" x2="155" y2="155" stroke="#44403c" stroke-width="8" stroke-linecap="round"/>
  </g>
  <!-- S tiles -->
  <g opacity="0.65">
    <rect x="1040" y="30" width="40" height="40" rx="5" fill="#f8fafc" transform="rotate(8 1060 50)"/>
    <text x="1060" y="57" font-family="Georgia, serif" font-size="20" font-weight="bold" fill="#1e1b4b" text-anchor="middle" transform="rotate(8 1060 50)">S</text>
    <rect x="1080" y="220" width="40" height="40" rx="5" fill="#f8fafc" transform="rotate(-9 1100 240)"/>
    <text x="1100" y="247" font-family="Georgia, serif" font-size="20" font-weight="bold" fill="#1e1b4b" text-anchor="middle" transform="rotate(-9 1100 240)">S</text>
    <rect x="350" y="240" width="38" height="38" rx="5" fill="#f8fafc" transform="rotate(6 369 259)"/>
    <text x="369" y="265" font-family="Georgia, serif" font-size="18" font-weight="bold" fill="#1e1b4b" text-anchor="middle" transform="rotate(6 369 259)">S</text>
  </g>
  <g opacity="0.4">
    <rect x="1000" y="130" width="34" height="34" rx="4" fill="#e0e7ff" transform="rotate(-11 1017 147)"/>
    <text x="1017" y="153" font-family="Georgia, serif" font-size="16" font-weight="bold" fill="#312e81" text-anchor="middle" transform="rotate(-11 1017 147)">N</text>
  </g>
  <text x="650" y="120" font-family="Inter, system-ui, sans-serif" font-size="52" font-weight="800" fill="white" text-anchor="middle" letter-spacing="-1">Scrabble Word Finder</text>
  <text x="650" y="170" font-family="Inter, system-ui, sans-serif" font-size="28" fill="#c4b5fd" text-anchor="middle">Automatic scoring — fast word lookup</text>
</svg>
