<svg xmlns="http://www.w3.org/2000/svg" viewBox="0 0 1200 300" fill="none">
  <defs>
    <linearGradient id="bg6" x1="0" y1="0" x2="0" y2="1">
      <stop offset="0%" stop-color="#0f172a"/>
      <stop offset="100%" stop-color="#3730a3"/>
    </linearGradient>
    <radialGradient id="lens6" cx="0.4" cy="0.35" r="0.6">
      <stop offset="0%" stop-color="#ecfdf5" stop-opacity="0.5"/>
      <stop offset="50%" stop-color="#d1fae5" stop-opacity="0.25"/>
      <stop offset="100%" stop-color="#6ee7b7" stop-opacity="0.08"/>
    </radialGradient>
  </defs>
  <rect width="1200" height="300" fill="url(#bg6)"/>
  <!-- Antique magnifying glass — far right -->
  <g transform="translate(990, 40)">
    <circle cx="65" cy="65" r="52" fill="url(#lens6)"/>
    <circle cx="65" cy="65" r="52" fill="none" stroke="#9ca3af" stroke-width="5"/>
    <ellipse cx="48" cy="45" rx="14" ry="8" fill="white" opacity="0.35" transform="rotate(-28, 48, 45)"/>
    <rect x="42" y="45" width="24" height="24" rx="3" fill="#f8fafc" opacity="0.85"/>
    <text x="54" y="63" font-family="Georgia, serif" font-size="12" font-weight="bold" fill="#1e1b4b" text-anchor="middle">O</text>
    <rect x="68" y="45" width="24" height="24" rx="3" fill="#f8fafc" opacity="0.85"/>
    <text x="80" y="63" font-family="Georgia, serif" font-size="12" font-weight="bold" fill="#1e1b4b" text-anchor="middle">X</text>
    <rect x="42" y="72" width="24" height="24" rx="3" fill="#f8fafc" opacity="0.85"/>
    <text x="54" y="90" font-family="Georgia, serif" font-size="12" font-weight="bold" fill="#1e1b4b" text-anchor="middle">Y</text>
    <rect x="68" y="72" width="24" height="24" rx="3" fill="#f8fafc" opacity="0.85"/>
    <text x="80" y="90" font-family="Georgia, serif" font-size="12" font-weight="bold" fill="#1e1b4b" text-anchor="middle">G</text>
    <line x1="104" y1="104" x2="110" y2="110" stroke="#fbbf24" stroke-width="9" stroke-linecap="round"/>
    <line x1="110" y1="110" x2="150" y2="150" stroke="#1c1917" stroke-width="12" stroke-linecap="round"/>
    <line x1="110" y1="110" x2="150" y2="150" stroke="#44403c" stroke-width="8" stroke-linecap="round"/>
  </g>
  <!-- S tiles -->
  <g opacity="0.65">
    <rect x="60" y="30" width="40" height="40" rx="5" fill="#f8fafc" transform="rotate(-7 80 50)"/>
    <text x="80" y="57" font-family="Georgia, serif" font-size="20" font-weight="bold" fill="#1e1b4b" text-anchor="middle" transform="rotate(-7 80 50)">S</text>
    <rect x="100" y="225" width="40" height="40" rx="5" fill="#f8fafc" transform="rotate(11 120 245)"/>
    <text x="120" y="252" font-family="Georgia, serif" font-size="20" font-weight="bold" fill="#1e1b4b" text-anchor="middle" transform="rotate(11 120 245)">S</text>
    <rect x="900" y="240" width="38" height="38" rx="5" fill="#f8fafc" transform="rotate(-5 919 259)"/>
    <text x="919" y="265" font-family="Georgia, serif" font-size="18" font-weight="bold" fill="#1e1b4b" text-anchor="middle" transform="rotate(-5 919 259)">S</text>
  </g>
  <g opacity="0.4">
    <rect x="160" y="140" width="34" height="34" rx="4" fill="#e0e7ff" transform="rotate(8 177 157)"/>
    <text x="177" y="163" font-family="Georgia, serif" font-size="16" font-weight="bold" fill="#312e81" text-anchor="middle" transform="rotate(8 177 157)">Z</text>
  </g>
  <text x="500" y="120" font-family="Inter, system-ui, sans-serif" font-size="52" font-weight="800" fill="white" text-anchor="middle" letter-spacing="-1">Scrabble Word Finder</text>
  <text x="500" y="170" font-family="Inter, system-ui, sans-serif" font-size="28" fill="#a5b4fc" text-anchor="middle">Free crossword helper — automatic lookup</text>
</svg>
