<svg xmlns="http://www.w3.org/2000/svg" viewBox="0 0 1200 300" fill="none">
  <defs>
    <linearGradient id="bg8" x1="0" y1="0.5" x2="1" y2="0.5">
      <stop offset="0%" stop-color="#312e81"/>
      <stop offset="100%" stop-color="#1e1b4b"/>
    </linearGradient>
    <radialGradient id="lens8" cx="0.38" cy="0.33" r="0.58">
      <stop offset="0%" stop-color="#ecfdf5" stop-opacity="0.5"/>
      <stop offset="50%" stop-color="#d1fae5" stop-opacity="0.25"/>
      <stop offset="100%" stop-color="#6ee7b7" stop-opacity="0.08"/>
    </radialGradient>
  </defs>
  <rect width="1200" height="300" fill="url(#bg8)"/>
  <!-- Antique magnifying glass — far right -->
  <g transform="translate(985, 35)">
    <circle cx="65" cy="65" r="52" fill="url(#lens8)"/>
    <circle cx="65" cy="65" r="52" fill="none" stroke="#9ca3af" stroke-width="5"/>
    <ellipse cx="47" cy="44" rx="14" ry="8" fill="white" opacity="0.36" transform="rotate(-28, 47, 44)"/>
    <rect x="40" y="45" width="24" height="24" rx="3" fill="#f8fafc" opacity="0.85"/>
    <text x="52" y="63" font-family="Georgia, serif" font-size="12" font-weight="bold" fill="#1e1b4b" text-anchor="middle">Q</text>
    <rect x="68" y="45" width="24" height="24" rx="3" fill="#f8fafc" opacity="0.85"/>
    <text x="80" y="63" font-family="Georgia, serif" font-size="12" font-weight="bold" fill="#1e1b4b" text-anchor="middle">U</text>
    <rect x="40" y="73" width="24" height="24" rx="3" fill="#f8fafc" opacity="0.85"/>
    <text x="52" y="91" font-family="Georgia, serif" font-size="12" font-weight="bold" fill="#1e1b4b" text-anchor="middle">I</text>
    <rect x="68" y="73" width="24" height="24" rx="3" fill="#f8fafc" opacity="0.85"/>
    <text x="80" y="91" font-family="Georgia, serif" font-size="12" font-weight="bold" fill="#1e1b4b" text-anchor="middle">R</text>
    <line x1="104" y1="104" x2="110" y2="110" stroke="#fbbf24" stroke-width="9" stroke-linecap="round"/>
    <line x1="110" y1="110" x2="148" y2="148" stroke="#1c1917" stroke-width="12" stroke-linecap="round"/>
    <line x1="110" y1="110" x2="148" y2="148" stroke="#44403c" stroke-width="8" stroke-linecap="round"/>
  </g>
  <!-- S tiles -->
  <g opacity="0.65">
    <rect x="50" y="25" width="40" height="40" rx="5" fill="#f8fafc" transform="rotate(7 70 45)"/>
    <text x="70" y="52" font-family="Georgia, serif" font-size="20" font-weight="bold" fill="#1e1b4b" text-anchor="middle" transform="rotate(7 70 45)">S</text>
    <rect x="80" y="230" width="40" height="40" rx="5" fill="#f8fafc" transform="rotate(-5 100 250)"/>
    <text x="100" y="257" font-family="Georgia, serif" font-size="20" font-weight="bold" fill="#1e1b4b" text-anchor="middle" transform="rotate(-5 100 250)">S</text>
    <rect x="920" y="240" width="38" height="38" rx="5" fill="#f8fafc" transform="rotate(6 939 259)"/>
    <text x="939" y="265" font-family="Georgia, serif" font-size="18" font-weight="bold" fill="#1e1b4b" text-anchor="middle" transform="rotate(6 939 259)">S</text>
  </g>
  <g opacity="0.4">
    <rect x="160" y="150" width="34" height="34" rx="4" fill="#e0e7ff" transform="rotate(10 177 167)"/>
    <text x="177" y="173" font-family="Georgia, serif" font-size="16" font-weight="bold" fill="#312e81" text-anchor="middle" transform="rotate(10 177 167)">Y</text>
  </g>
  <text x="500" y="120" font-family="Inter, system-ui, sans-serif" font-size="52" font-weight="800" fill="white" text-anchor="middle" letter-spacing="-1">Scrabble Word Finder</text>
  <text x="500" y="170" font-family="Inter, system-ui, sans-serif" font-size="28" fill="#a5b4fc" text-anchor="middle">Fast word lookup — 74,000+ words</text>
</svg>
