<svg xmlns="http://www.w3.org/2000/svg" viewBox="0 0 1200 300" fill="none">
  <defs>
    <linearGradient id="bg9" x1="0" y1="0" x2="1" y2="1">
      <stop offset="0%" stop-color="#0c0a1d"/>
      <stop offset="100%" stop-color="#312e81"/>
    </linearGradient>
    <radialGradient id="lens9" cx="0.4" cy="0.35" r="0.6">
      <stop offset="0%" stop-color="#ecfdf5" stop-opacity="0.5"/>
      <stop offset="50%" stop-color="#d1fae5" stop-opacity="0.25"/>
      <stop offset="100%" stop-color="#6ee7b7" stop-opacity="0.08"/>
    </radialGradient>
  </defs>
  <rect width="1200" height="300" fill="url(#bg9)"/>
  <!-- Antique magnifying glass — far left -->
  <g transform="translate(25, 45)">
    <circle cx="68" cy="68" r="53" fill="url(#lens9)"/>
    <circle cx="68" cy="68" r="53" fill="none" stroke="#9ca3af" stroke-width="5"/>
    <ellipse cx="50" cy="47" rx="14" ry="8" fill="white" opacity="0.36" transform="rotate(-25, 50, 47)"/>
    <rect x="42" y="48" width="24" height="24" rx="3" fill="#f8fafc" opacity="0.85"/>
    <text x="54" y="66" font-family="Georgia, serif" font-size="12" font-weight="bold" fill="#1e1b4b" text-anchor="middle">F</text>
    <rect x="70" y="48" width="24" height="24" rx="3" fill="#f8fafc" opacity="0.85"/>
    <text x="82" y="66" font-family="Georgia, serif" font-size="12" font-weight="bold" fill="#1e1b4b" text-anchor="middle">R</text>
    <rect x="42" y="76" width="24" height="24" rx="3" fill="#f8fafc" opacity="0.85"/>
    <text x="54" y="94" font-family="Georgia, serif" font-size="12" font-weight="bold" fill="#1e1b4b" text-anchor="middle">O</text>
    <rect x="70" y="76" width="24" height="24" rx="3" fill="#f8fafc" opacity="0.85"/>
    <text x="82" y="94" font-family="Georgia, serif" font-size="12" font-weight="bold" fill="#1e1b4b" text-anchor="middle">Z</text>
    <line x1="107" y1="107" x2="113" y2="113" stroke="#fbbf24" stroke-width="9" stroke-linecap="round"/>
    <line x1="113" y1="113" x2="150" y2="150" stroke="#1c1917" stroke-width="12" stroke-linecap="round"/>
    <line x1="113" y1="113" x2="150" y2="150" stroke="#44403c" stroke-width="8" stroke-linecap="round"/>
  </g>
  <!-- S tiles -->
  <g opacity="0.65">
    <rect x="1050" y="30" width="40" height="40" rx="5" fill="#f8fafc" transform="rotate(-8 1070 50)"/>
    <text x="1070" y="57" font-family="Georgia, serif" font-size="20" font-weight="bold" fill="#1e1b4b" text-anchor="middle" transform="rotate(-8 1070 50)">S</text>
    <rect x="1070" y="215" width="40" height="40" rx="5" fill="#f8fafc" transform="rotate(7 1090 235)"/>
    <text x="1090" y="242" font-family="Georgia, serif" font-size="20" font-weight="bold" fill="#1e1b4b" text-anchor="middle" transform="rotate(7 1090 235)">S</text>
    <rect x="320" y="245" width="38" height="38" rx="5" fill="#f8fafc" transform="rotate(-6 339 264)"/>
    <text x="339" y="270" font-family="Georgia, serif" font-size="18" font-weight="bold" fill="#1e1b4b" text-anchor="middle" transform="rotate(-6 339 264)">S</text>
    <rect x="300" y="20" width="38" height="38" rx="5" fill="#f8fafc" transform="rotate(10 319 39)"/>
    <text x="319" y="45" font-family="Georgia, serif" font-size="18" font-weight="bold" fill="#1e1b4b" text-anchor="middle" transform="rotate(10 319 39)">S</text>
  </g>
  <text x="650" y="120" font-family="Inter, system-ui, sans-serif" font-size="52" font-weight="800" fill="white" text-anchor="middle" letter-spacing="-1">Scrabble Word Finder</text>
  <text x="650" y="170" font-family="Inter, system-ui, sans-serif" font-size="28" fill="#c4b5fd" text-anchor="middle">Zero friction — results as you type</text>
</svg>
